<svg xmlns="http://www.w3.org/2000/svg" viewBox="0 0 512 512"><circle cx="256" cy="256" r="256" fill="#273b7a"/><path d="M280.35 510.84c105.322-9.94 192.059-83.68 221.167-182.165l-81.561-81.561-3.065 8.894-66.644-66.644-9.197 96.523 19.351 19.351-265.862 19.791L280.35 510.84z" fill="#121149"/><path d="M369.778 350.815c35.347 0 64-28.653 64-64s-28.653-64-64-64c-.398 0-.791.022-1.188.029-5.07-28.194-29.71-49.592-59.364-49.592-3.646 0-7.211.341-10.68.962-13.226-30.001-43.208-50.955-78.102-50.955-47.128 0-85.333 38.205-85.333 85.333 0 .476.028.945.036 1.419-32.475 6.575-56.925 35.276-56.925 69.692 0 39.274 31.837 71.111 71.111 71.111h220.445z" fill="#71e2ef"/><path d="M369.778 222.815c-.398 0-.791.022-1.188.029-5.07-28.194-29.71-49.592-59.364-49.592-3.646 0-7.211.341-10.68.962-10.137-22.993-30.124-40.66-54.613-47.664v224.265h125.845c35.347 0 64-28.653 64-64s-28.653-64-64-64z" fill="#38c6d9"/></svg>