<svg id="Layer_1" xmlns="http://www.w3.org/2000/svg" viewBox="0 0 151.2 30"><style>.st0{fill:#3b5998}</style><g id="g8"><path id="path10" class="st0" d="M77.8 14.7c-1.3 0-2.2.4-3.1.8V25c.9.1 1.4.1 2.2.1 3 0 3.4-1.4 3.4-3.3v-4.5c0-1.6-.4-2.6-2.5-2.6zm-19.9-.5c-2.1 0-2.6 1.1-2.6 2.6v.8h5.1v-.8c.1-1.6-.4-2.6-2.5-2.6zm-38.5 9.7c0 1.1.5 1.7 1.7 1.7 1.3 0 2-.4 2.9-.8v-2.2h-2.7c-1.4-.1-1.9.2-1.9 1.3zm77.8-9.2c-2.1 0-2.8 1.1-2.8 2.6v5.2c0 1.4.7 2.6 2.8 2.6 2.1 0 2.8-1.1 2.8-2.6v-5.2c0-1.6-.7-2.6-2.8-2.6zm-88 15H3.1V14.9H0V9.8h3.1V6.7C3.1 2.5 4.8 0 9.8 0h4.1v5.1h-2.6c-1.9 0-2 .7-2 2.1v2.6h4.6l-.5 5.1H9.3c-.1.1-.1 14.8-.1 14.8zm20.9.1H25l-.2-1.3C22.5 29.8 20.4 30 19 30c-3.8 0-5.7-2.5-5.7-6 0-4.1 2.3-5.5 6.5-5.5H24v-.9c0-2.1-.2-2.7-3.4-2.7h-5.2l.5-5.1h5.7c7 0 8.6 2.2 8.6 7.9-.1-.1-.1 12.1-.1 12.1zm17.3-14.6c-3.2-.5-4.1-.7-5.6-.7-2.8 0-3.6.6-3.6 2.9v4.4c0 2.3.8 2.9 3.6 2.9 1.5 0 2.4-.1 5.6-.7v5c-2.8.6-4.6.8-6.1.8-6.6 0-9.2-3.5-9.2-8.5v-3.6c0-5 2.6-8.5 9.2-8.5 1.5 0 3.4.2 6.1.8v5.2zm19.2 6.3H55.3v.4c0 2.3.8 2.9 3.6 2.9 2.5 0 4-.1 7.2-.7v5c-3.1.6-4.7.8-7.7.8-6.6 0-9.2-3.5-9.2-8.5v-4.1c0-4.4 1.9-8 8.7-8s8.7 3.5 8.7 8v4.2zm19.9.1c0 4.8-1.4 8.4-9.8 8.4-3 0-4.8-.3-8.1-.8V1.6l6.1-1v9.7c1.3-.5 3-.7 4.6-.7 6.1 0 7.2 2.8 7.2 7.2v4.8zm19.4.1c0 4.2-1.7 8.2-8.9 8.2s-9-4-9-8.2v-4c0-4.2 1.8-8.2 9-8.2s8.9 4 8.9 8.2v4zm19.8 0c0 4.2-1.7 8.2-8.9 8.2s-9-4-9-8.2v-4c0-4.2 1.8-8.2 9-8.2s8.9 4 8.9 8.2v4zm20 8H139l-5.6-9.4v9.4h-6.1V1.6l6.1-1v18l5.6-8.9h6.7l-6.1 9.7 6.1 10.3zm-29-15c-2.1 0-2.8 1.1-2.8 2.6v5.2c0 1.4.7 2.6 2.8 2.6s2.8-1.1 2.8-2.6v-5.2c-.1-1.6-.7-2.6-2.8-2.6z"/><path id="path12" class="st0" d="M149.3 26.2c1 0 1.9.8 1.9 1.9s-.8 1.9-1.9 1.9c-1 0-1.9-.8-1.9-1.9-.1-1 .8-1.9 1.9-1.9zm-.1.3c-.8 0-1.5.7-1.5 1.6 0 .9.7 1.6 1.5 1.6s1.5-.7 1.5-1.6c0-.9-.6-1.6-1.5-1.6zm-.4 2.7h-.3v-2.1h.6c.3 0 .5.1.7.2.1.1.2.2.2.4 0 .3-.2.4-.4.5.2 0 .3.2.4.5 0 .3.1.5.1.5h-.4c0-.1-.1-.3-.1-.5 0-.3-.2-.4-.5-.4h-.2l-.1.9zm0-1.2h.2c.3 0 .5-.1.5-.4 0-.2-.1-.4-.5-.4h-.2v.8z"/></g></svg>