<svg xmlns="http://www.w3.org/2000/svg" viewBox="0 0 297.001 297.001"><circle cx="148.501" cy="148.5" r="148.5" fill="#404447"/><path d="M296.948 152.446l-35.335-35.335-227.026 78.486L135.4 296.419c4.318.378 8.685.582 13.101.582 80.695-.001 146.355-64.365 148.447-144.555z" fill="#2c3033"/><path d="M259.028 116.153l-76.721-27.445c-8.188-2.929-16.806 3.141-16.806 11.837v16.492h4.711c.416-5.114 5.594-8.561 10.537-6.793l18.99 6.793h59.136c.51 0 .635-.712.153-.884zm-221.054 0l76.721-27.445c8.188-2.929 16.806 3.141 16.806 11.837v16.492h-4.711c-.416-5.114-5.594-8.561-10.537-6.793l-18.99 6.793H38.127c-.511 0-.635-.712-.153-.884z" fill="#848c91"/><path d="M257.25 115.5H39.75a6.75 6.75 0 0 0-6.75 6.75v69a6.75 6.75 0 0 0 6.75 6.75h79.475a20.377 20.377 0 0 0 14.408-5.968l14.866-14.866 14.866 14.866A20.377 20.377 0 0 0 177.773 198h79.475a6.75 6.75 0 0 0 6.75-6.75v-69a6.746 6.746 0 0 0-6.748-6.75z" fill="#d0d5d9"/><path d="M257.25 115.5H148.168v61.999l.333-.333 14.866 14.866A20.377 20.377 0 0 0 177.775 198h79.475a6.75 6.75 0 0 0 6.75-6.75v-69a6.75 6.75 0 0 0-6.75-6.75z" fill="#a1a5a8"/><path d="M126.835 181.5H54.668a5.167 5.167 0 0 1-5.167-5.167v-39.167a5.167 5.167 0 0 1 5.167-5.167h72.167a5.166 5.166 0 0 1 5.166 5.167v39.167a5.166 5.166 0 0 1-5.166 5.167z" fill="#d35400"/><path d="M242.333 181.5h-72.167a5.167 5.167 0 0 1-5.167-5.167v-39.167a5.167 5.167 0 0 1 5.167-5.167h72.167a5.167 5.167 0 0 1 5.167 5.167v39.167a5.165 5.165 0 0 1-5.167 5.167z" fill="#16a085"/></svg>