<svg xmlns="http://www.w3.org/2000/svg" viewBox="0 0 512 512"><circle cx="256" cy="256" r="256" fill="#273b7a"/><path d="M297.903 508.568c113.367-18.668 201.63-111.8 212.875-227.502L401.525 171.813l-85.202 65.21-8.221-8.223-10.988 2.836-66.974-66.974-15.369 24.535 53.212 51.348-188.745 49.993 218.665 218.03z" fill="#121149"/><path d="M91.367 224.539c0-45.463 36.854-82.316 82.316-82.316S256 179.076 256 224.539c0-45.463 36.854-82.316 82.316-82.316s82.316 36.854 82.316 82.316C420.633 328.806 256 416.151 256 416.151S91.367 323.817 91.367 224.539z" fill="#ff6262"/><path d="M420.633 224.539c0-45.463-36.854-82.316-82.316-82.316-45.456 0-82.304 36.843-82.316 82.296v191.633c.021-.013 164.632-87.353 164.632-191.613z" fill="#ff314f"/><path d="M255.998 349.953a8.62 8.62 0 0 1-7.708-4.765l-49.18-98.357-20.735 41.47a8.621 8.621 0 0 1-7.709 4.763H85.333c-4.761 0-8.62-3.858-8.62-8.62s3.858-8.62 8.62-8.62h80.006l26.062-52.124a8.619 8.619 0 0 1 15.418 0l48.538 97.077 28.91-68.143a8.623 8.623 0 0 1 6.956-5.198 8.614 8.614 0 0 1 7.949 3.494l18.103 24.893h109.39c4.761 0 8.62 3.858 8.62 8.62s-3.858 8.62-8.62 8.62H312.889a8.621 8.621 0 0 1-6.971-3.551l-11.729-16.125-30.256 71.313a8.624 8.624 0 0 1-7.664 5.249c-.091.002-.181.004-.271.004z" fill="#fff"/><path d="M426.667 275.825H317.278l-18.104-24.893a8.617 8.617 0 1 0-14.905 1.704L256 319.264v30.689c.09 0 .179-.002.269-.003a8.62 8.62 0 0 0 7.664-5.249l30.255-71.313 11.729 16.125a8.618 8.618 0 0 0 6.971 3.551h113.778c4.761 0 8.62-3.858 8.62-8.62s-3.86-8.619-8.619-8.619z" fill="#d0d1d3"/></svg>