<svg xmlns="http://www.w3.org/2000/svg" viewBox="0 0 508 508"><circle cx="254" cy="254" r="254" fill="#324a5e"/><path d="M339.6 116.8v2.4c0 12-10 22-22 22h-46c-7.6 0-14 6.4-14 14v42.4h-8v-42.8c0-12 9.6-21.6 21.6-21.6H318c7.6 0 14-6.4 14-14v-2.4c0-7.6-6.4-14-14-14H202.8c-12 0-22-10-22-22s9.6-22 22-22h46.8c9.6 0 17.6-8 17.6-17.6V0c2.8 0 5.2.4 8 .4v41.2c0 14-11.6 25.6-25.6 25.6h-46.8c-7.6 0-14 6.4-14 14s6.4 14 14 14H318c12-.4 21.6 9.6 21.6 21.6z" fill="#4cdbc4"/><path d="M254.4 182.8h-1.2c-47.2 0-85.6 38.4-85.6 85.6v110c0 47.2 38.4 85.6 85.6 85.6h1.2c47.2 0 85.6-38.4 85.6-85.6v-110c0-47.2-38.4-85.6-85.6-85.6z" fill="#fff"/><path d="M340 268.4V294H168v-25.6c0-46 36.4-83.6 82-85.2v51.6h8v-52c45.6 2 82 39.6 82 85.6z" fill="#e6e9ee"/><path d="M254 278.4c-6.8 0-12.4-5.6-12.4-12.4v-32.8c0-6.8 5.6-12.4 12.4-12.4 6.8 0 12.4 5.6 12.4 12.4V266c0 6.8-5.6 12.4-12.4 12.4z" fill="#324a5e"/></svg>