<svg xmlns="http://www.w3.org/2000/svg" viewBox="0 0 297 297"><circle cx="148.5" cy="148.5" r="148.5" fill="#c0392b"/><path d="M247.5 148.5L89.119 227.721l68.137 69.015c63.152-3.673 115.705-46.803 133.374-105.106L247.5 148.5z" fill="#9e231d"/><circle cx="145.406" cy="137.24" r="36.094" fill="#e67e22"/><path d="M145.406 177.333c-22.107 0-40.094-17.986-40.094-40.094s17.986-40.094 40.094-40.094 40.094 17.986 40.094 40.094-17.986 40.094-40.094 40.094zm0-72.187c-17.696 0-32.094 14.397-32.094 32.094s14.397 32.094 32.094 32.094S177.5 154.937 177.5 137.24s-14.397-32.094-32.094-32.094z" fill="#f4af30"/><circle cx="145.406" cy="137.24" r="18.047" fill="#e67e22"/><path d="M145.406 159.286c-12.156 0-22.047-9.891-22.047-22.047s9.891-22.047 22.047-22.047 22.047 9.891 22.047 22.047-9.89 22.047-22.047 22.047zm0-36.094c-7.745 0-14.047 6.302-14.047 14.047s6.302 14.047 14.047 14.047 14.047-6.302 14.047-14.047-6.302-14.047-14.047-14.047z" fill="#f4af30"/><path d="M145.406 101.146c-.08 0-.159.006-.239.006v72.175c.08.001.159.006.239.006 19.934 0 36.094-16.16 36.094-36.094 0-19.933-16.16-36.093-36.094-36.093z" fill="#c46116"/><path d="M145.406 97.146c-.08 0-.159.006-.239.006v8c.08-.001.159-.006.239-.006 17.696 0 32.094 14.397 32.094 32.094s-14.397 32.094-32.094 32.094c-.08 0-.159-.005-.239-.006v8c.08 0 .159.006.239.006 22.107 0 40.094-17.986 40.094-40.094s-17.986-40.094-40.094-40.094z" fill="#d89221"/><path d="M145.406 119.193c-.081 0-.159.011-.239.012v36.07c.081.001.158.012.239.012 9.967 0 18.047-8.08 18.047-18.047s-8.08-18.047-18.047-18.047z" fill="#c46116"/><path d="M145.406 115.192c-.08 0-.159.005-.239.006v8.006c.08-.001.158-.012.239-.012 7.745 0 14.047 6.302 14.047 14.047s-6.302 14.047-14.047 14.047c-.081 0-.159-.011-.239-.012v8.006c.08.001.159.006.239.006 12.156 0 22.047-9.891 22.047-22.047s-9.89-22.047-22.047-22.047z" fill="#d89221"/><circle cx="99" cy="148.5" r="33" fill="#e67e22"/><path d="M99 185.5c-20.402 0-37-16.598-37-37s16.598-37 37-37 37 16.598 37 37-16.598 37-37 37zm0-66c-15.99 0-29 13.01-29 29s13.01 29 29 29 29-13.01 29-29-13.01-29-29-29z" fill="#f4af30"/><circle cx="99" cy="148.5" r="16.5" fill="#e67e22"/><path d="M99 169c-11.304 0-20.5-9.196-20.5-20.5S87.696 128 99 128s20.5 9.196 20.5 20.5S110.304 169 99 169zm0-33c-6.893 0-12.5 5.607-12.5 12.5S92.107 161 99 161s12.5-5.607 12.5-12.5S105.893 136 99 136z" fill="#f4af30"/><circle cx="189.75" cy="156.75" r="41.25" fill="#e67e22"/><path d="M189.75 202c-24.951 0-45.25-20.299-45.25-45.25s20.299-45.25 45.25-45.25S235 131.799 235 156.75 214.701 202 189.75 202zm0-82.5c-20.54 0-37.25 16.71-37.25 37.25S169.21 194 189.75 194 227 177.29 227 156.75s-16.71-37.25-37.25-37.25z" fill="#f4af30"/><circle cx="189.75" cy="156.75" r="25" fill="#e67e22"/><path d="M189.75 185.75c-15.99 0-29-13.01-29-29s13.01-29 29-29 29 13.01 29 29-13.01 29-29 29zm0-50c-11.579 0-21 9.421-21 21s9.421 21 21 21 21-9.421 21-21-9.421-21-21-21z" fill="#f4af30"/><circle cx="189.75" cy="156.75" r="8.25" fill="#e67e22"/><path d="M189.75 169c-6.755 0-12.25-5.495-12.25-12.25s5.495-12.25 12.25-12.25S202 149.995 202 156.75 196.505 169 189.75 169zm0-16.5c-2.344 0-4.25 1.906-4.25 4.25s1.906 4.25 4.25 4.25 4.25-1.906 4.25-4.25-1.906-4.25-4.25-4.25z" fill="#f4af30"/><path d="M247.5 148.5c0 54.676-44.324 99-99 99s-99-44.324-99-99h198z" fill="#f0deb4"/><path d="M145.167 148.5v98.938c1.107.037 2.217.062 3.333.062 54.676 0 99-44.324 99-99H145.167z" fill="#d5c295"/><path d="M198 119.5a4 4 0 0 1-4-4v-66a4 4 0 0 1 8 0v66a4 4 0 0 1-4 4zM181.5 136a4 4 0 0 1-4-4V66a4 4 0 0 1 8 0v66a4 4 0 0 1-4 4z" fill="#f4af30"/><path d="M198 71H66c-2.762 0-5-2.238-5-5s2.238-5 5-5h132c2.762 0 5 2.238 5 5s-2.238 5-5 5zm16.5-16.5h-132c-2.762 0-5-2.238-5-5s2.238-5 5-5h132c2.762 0 5 2.238 5 5s-2.238 5-5 5z" fill="#d5c295"/><path d="M198 61h-49.833v10H198c2.762 0 5-2.238 5-5s-2.238-5-5-5zm16.5-16.5h-66.333v10H214.5c2.762 0 5-2.238 5-5s-2.238-5-5-5z" fill="#bca77e"/></svg>