<svg xmlns="http://www.w3.org/2000/svg" viewBox="0 0 512 512"><circle cx="256" cy="256" r="256" fill="#f2cf61"/><path d="M112 106.332c0 13.2 10.8 24 24 24h212v224c0 4-4 8-8 8-52-.024-204 0-204 0-13.2 0-24-10.8-24-24v-232z" fill="#233540"/><g fill="#1c2a33"><path d="M152 130.332h8v232h-8zm24 48h8v184h-8z"/><path d="M348 146.332v140c0 8.8-7.2 16-16 16H192c-8.8 0-16-7.2-16-16v-112c0-16 12-28 28-28h144z"/></g><path d="M348 90.332c0-4-4-8-8-8H136c-13.2 0-24 10.8-24 24s10.8 24 24 24h212v-40z" fill="#406a80"/><path fill="#395f73" d="M152 82.332h8v48h-8z"/><path d="M136 130.332h16v-48h-16c-13.2 0-24 10.8-24 24s10.8 24 24 24z" fill="#e66356"/><path d="M136 122.332c-8.672 0-16-7.328-16-16s7.328-16 16-16h212v32H136z" fill="#f5f5f5"/><path d="M136 362.332h16v-232h-16c-13.2 0-24-10.8-24-24v232c0 13.2 10.8 24 24 24z" fill="#cc584c"/><g fill="#f5f5f5"><path d="M212 234.32h80v8h-80z"/><path d="M192 234.32h104v8H192z"/></g><path d="M184 178.332c0 13.2 10.8 24 24 24h200v224c0 4-4 8-8 8-52-.024-192 0-192 0-13.2 0-24-10.8-24-24v-232z" fill="#233540"/><path fill="#1c2a33" d="M224 202.332h8v232h-8z"/><path d="M408 162.332c0-4-4-8-8-8H208c-13.2 0-24 10.8-24 24s10.8 24 24 24h200v-40z" fill="#406a80"/><path fill="#395f73" d="M224 154.332h8v48h-8z"/><path d="M208 202.332h16v-48h-16c-13.2 0-24 10.8-24 24s10.8 24 24 24z" fill="#e66356"/><path d="M208 194.332c-8.672 0-16-7.328-16-16s7.328-16 16-16h200v32H208z" fill="#f5f5f5"/><path d="M208 434.332h16v-232h-16c-13.2 0-24-10.8-24-24v232c0 13.2 10.8 24 24 24z" fill="#cc584c"/><path d="M284 290.32h64v8h-64zm-20 16h104v8H264z" fill="#f5f5f5"/></svg>