<svg xmlns="http://www.w3.org/2000/svg" viewBox="0 0 504 504"><circle cx="252" cy="252" r="252" fill="#84dbff"/><path d="M436.7 173.8L387 226.3 354.2 199v211.1H149.8V199L117 226.3l-49.7-52.5 82.4-71.4.1.1v-.1l50.1-6.6 14.4-1.9c4.7 16.4 19.9 28.4 37.8 28.4s33-12 37.7-28.4l14.4 1.9 50.1 6.6v.1l82.4 71.3z" fill="#ff7058"/><path d="M436.7 173.8L387 226.3 354.2 199v-96.5zm-369.4 0l49.7 52.5 32.8-27.3v-96.5zm82.5 213.5h204.4v22.8H149.8z" fill="#fff"/><path d="M149.8 341.8h204.4v22.8H149.8zm0-45.5h204.4v22.8H149.8zm0-45.5h204.4v22.8H149.8z" fill="#f1543f"/><path d="M289.7 93.9c-4.7 16.4-19.9 28.4-37.7 28.4-17.9 0-33-12-37.8-28.4l-14.4 1.9c5.8 23.4 26.9 40.8 52.2 40.8 25.2 0 46.4-17.4 52.1-40.8l-14.4-1.9z" fill="#fff"/></svg>