<svg xmlns="http://www.w3.org/2000/svg" viewBox="0 0 297 297"><circle cx="148.5" cy="148.5" r="148.5" fill="#d95459"/><path d="M297 148.5c0-5.26-.278-10.454-.811-15.573L229.54 66.203 66.172 229.495l66.686 66.686A150.24 150.24 0 0 0 148.5 297c82.014 0 148.5-66.486 148.5-148.5z" fill="#962331"/><circle cx="148.5" cy="148.5" r="115.5" fill="#32373b"/><path d="M148.5 33c-.111 0-.222.004-.333.004v230.992c.111 0 .222.004.333.004 63.789 0 115.5-51.711 115.5-115.5S212.289 33 148.5 33z" fill="#2c3033"/><circle cx="148.5" cy="148.5" r="49.5" fill="#bdc3c7"/><path d="M148.5 99c-.112 0-.221.008-.333.008v98.983c.112.001.221.008.333.008 27.338 0 49.5-22.162 49.5-49.5C198 121.162 175.838 99 148.5 99z" fill="#a1a5a8"/><circle cx="148.5" cy="148.5" r="12.375" fill="#32373b"/><path d="M148.5 136.125c-.112 0-.221.014-.333.017v24.716c.112.003.221.017.333.017 6.835 0 12.375-5.541 12.375-12.375 0-6.835-5.54-12.375-12.375-12.375z" fill="#2c3033"/></svg>