<svg xmlns="http://www.w3.org/2000/svg" viewBox="0 0 504 504"><circle cx="252" cy="252" r="252" fill="#fd8469"/><path d="M146.3 436.8c97.8-46.9 206.8-63 304.6-109.9-15.5-42.8-30.9-85.7-46.4-128.5-97.8 46.9-206.8 63-304.6 109.9 15.4 42.9 30.9 85.7 46.4 128.5z" fill="#fff"/><path d="M331.6 228c24.8-8.6 49.2-18.2 72.9-29.6 15.5 42.8 30.9 85.7 46.4 128.5-23.8 11.4-48.2 21-72.9 29.6-15.5-42.8-31-85.6-46.4-128.5z" fill="#4cdbc4"/><path d="M312.2 264.2c-59 19-119.3 34.7-176.5 58.8-.8.3-1.7 0-2-.9-.3-.8.1-1.7.9-2.1 57.2-24.1 117.4-39.8 176.5-58.8.8-.3 1.7.2 2 1 .3.9-.1 1.8-.9 2zm-170.5 75.5c57.2-24.1 117.4-39.8 176.5-58.8.8-.3 1.7.2 2 1s-.1 1.7-1 2c-59 19-119.3 34.7-176.5 58.8-.8.3-1.7 0-2-.9-.2-.8.2-1.8 1-2.1zm7.1 19.6c57.2-24.1 117.4-39.8 176.5-58.8.8-.3 1.7.2 2 1s-.1 1.7-1 2c-59 19-119.3 34.7-176.5 58.8-.8.3-1.7 0-2-.9-.2-.8.2-1.8 1-2.1zm7.1 19.6c57.2-24.1 117.4-39.8 176.5-58.8.8-.3 1.7.2 2 1s-.1 1.7-1 2c-59 19-119.3 34.7-176.5 58.8-.8.3-1.7 0-2-.9-.2-.8.2-1.7 1-2.1zm7.1 19.6c57.2-24.1 117.4-39.8 176.5-58.8.8-.3 1.7.2 2 1s-.1 1.7-1 2c-59 19-119.3 34.7-176.5 58.8-.8.3-1.7 0-2-.9-.2-.8.2-1.7 1-2.1z" fill="#acb3ba"/><path d="M371.7 291.4l-1.8-5.1c4-6.3 8-12.7 12-19.2-5.6-16.5-1.5-19.9-1.5-19.9s5.2-.4 11.4 15.9c7 2 14 4 21 5.9l1.8 5.1c-5.9 1.5-11.8 2.9-17.8 4.2 1.8 5.9 3.4 11.8 4.7 17 4 .8 7.9 1.6 11.9 2.4.6 1.5 1.1 3.1 1.7 4.6-3.9.9-7.8 1.8-11.7 2.6.4 2.9.3 4.7-.4 5-.7.3-1.9-1-3.4-3.4-3.4 2.1-6.9 4.2-10.4 6.3-.6-1.5-1.1-3.1-1.7-4.6 2.5-3.3 4.9-6.7 7.4-10.1-2.3-4.7-4.8-10.2-7.2-15.9-5.4 3-10.7 6.1-16 9.2z" fill="#fff"/><path fill="#84dbff" d="M191.1 104.9V67.2l-16.3 16.2-15.7-15.7v38.8z"/><path d="M314.2 356.1H117c-1.4 0-2.5-1.1-2.5-2.5V102.7c0-1.4 1.1-2.5 2.5-2.5h197.2c1.4 0 2.5 1.1 2.5 2.5v250.8c0 1.5-1.2 2.6-2.5 2.6z" fill="#324a5e"/><path d="M138.1 100.2h-13.8c-5.4 0-9.9 4.4-9.9 9.9v236.1c0 5.4 4.4 9.9 9.9 9.9h13.8V100.2z" fill="#2b3b4e"/><path d="M225.9 136.6c-23.6 0-42.8 19.2-42.8 42.8s19.2 42.8 42.8 42.8 42.8-19.2 42.8-42.8c0-23.6-19.2-42.8-42.8-42.8zm38.9 40.9h-17.5c-.3-15.6-4.6-28.8-11.1-35.7 16 4.4 27.8 18.7 28.6 35.7zM224 140.6v37h-15.9c.4-19 7.4-35 15.9-37zm0 40.7v37c-8.5-2.1-15.5-18-15.9-37H224zm3.7 36.9v-37h15.9c-.4 19.1-7.3 35-15.9 37zm0-40.7v-37c8.5 2.1 15.5 18 15.9 37h-15.9zm-12.3-35.7c-6.4 6.9-10.7 20.1-11.1 35.7h-17.5c.9-17 12.7-31.3 28.6-35.7zm-28.5 39.5h17.5c.3 15.6 4.6 28.8 11.1 35.7-16-4.4-27.8-18.6-28.6-35.7zm49.4 35.7c6.4-6.9 10.7-20.1 11.1-35.7h17.5c-.9 17.1-12.7 31.3-28.6 35.7zm-62.9-71.4c.4-8.9 12.3-18.3 22.1-17-6.1 7.5-14.1 13.9-22.1 17zm-8.3 15c-6.2-1.8-8.3-13.4-.1-23.6 4.9 4.4 3.3 14.3.1 23.6zm0 0c6.3 1.9 13.2-2.5 18.3-8.6-4.7-4.5-14.7-1.4-18.3 8.6zm-3.4 19.2c-6.5.4-12.3-9.7-8.2-21.8 6.1 2.4 8.1 12 8.2 21.8zm0 0c6.6-.3 11.7-6.9 14.2-14.1-6-2.6-14.1 3.5-14.2 14.1zm3.2 19.1c-6 2.6-14.8-5.1-15-17.8 6.6.3 11.6 8.6 15 17.8zm0 0c6.1-2.6 8.7-10.5 8.7-18.1-6.5-.4-12.2 8.1-8.7 18.1zm9.7 17.2c-4.7 4.5-15.9.2-20.4-11.8 6.3-2 13.8 4.1 20.4 11.8zm0 0c4.8-4.5 4.3-13 1.8-20.3-6.2 1.9-8.8 11.9-1.8 20.3zm22.1 12.6c-6.6-1.7-12.6-4.5-17.9-8.2 3.9 5.1 9 9.9 15.5 13.8.8-1.8 1.6-3.7 2.4-5.6zm81.7-83.1c-.4-8.9-12.3-18.3-22.1-17 6.1 7.5 14 13.9 22.1 17zm8.2 15c6.2-1.8 8.3-13.4.1-23.6-4.9 4.4-3.3 14.3-.1 23.6zm0 0c-6.3 1.9-13.2-2.5-18.3-8.6 4.8-4.5 14.7-1.4 18.3 8.6zm3.4 19.2c6.5.4 12.3-9.7 8.2-21.8-6.1 2.4-8.1 12-8.2 21.8zm0 0c-6.6-.3-11.7-6.9-14.2-14.1 6-2.6 14.1 3.5 14.2 14.1zm-3.1 19.1c6 2.6 14.8-5.1 15-17.8-6.6.3-11.7 8.6-15 17.8zm0 0c-6.1-2.6-8.7-10.5-8.7-18.1 6.5-.4 12.1 8.1 8.7 18.1zm-9.8 17.2c4.7 4.5 15.9.2 20.4-11.8-6.3-2-13.8 4.1-20.4 11.8zm0 0c-4.8-4.5-4.3-13-1.8-20.3 6.3 1.9 8.8 11.9 1.8 20.3zM255 228.7c6.6-1.7 12.6-4.5 17.9-8.2-3.9 5.1-9 9.9-15.5 13.8-.8-1.8-1.6-3.7-2.4-5.6z" fill="#ffd05b"/><path d="M185.8 278.7c2.2 1.9 3.4 4.8 3.4 8.8 0 3.9-1.2 6.8-3.4 8.7-2.3 1.8-5.8 2.7-10.5 2.7H171v8.9h-7.1v-31.9h11.3c4.8 0 8.4.9 10.6 2.8zm-5.2 12.6c.9-1 1.3-2.4 1.3-4.2 0-1.8-.6-3.2-1.7-3.9-1.1-.8-2.8-1.2-5.2-1.2h-4v10.7h4.8c2.3 0 3.9-.4 4.8-1.4zm34.8 16.5l-3-6.9H199l-3 6.9h-7.6l13.8-31.9h6.9l13.8 31.9h-7.5zm-9.7-22.4l-4 9.3h8l-4-9.3zm27.9-3.1c-.7.6-1 1.3-1 2.2 0 .9.4 1.7 1.3 2.2.8.5 2.8 1.2 5.8 1.9s5.4 1.9 7.1 3.4c1.7 1.5 2.5 3.7 2.5 6.5 0 2.9-1.1 5.2-3.2 7-2.1 1.8-5 2.7-8.5 2.7-5.1 0-9.6-1.9-13.7-5.6l4.2-5.2c3.4 3 6.6 4.5 9.5 4.5 1.3 0 2.3-.3 3.1-.8.7-.6 1.1-1.3 1.1-2.3s-.4-1.7-1.2-2.3-2.4-1.1-4.7-1.7c-3.7-.9-6.4-2-8.2-3.4-1.7-1.4-2.6-3.6-2.6-6.7 0-3 1.1-5.4 3.3-7s4.9-2.5 8.2-2.5c2.1 0 4.3.4 6.4 1.1 2.1.7 4 1.8 5.6 3.1l-3.6 5.2c-2.8-2.1-5.6-3.2-8.6-3.2-1.2 0-2.1.3-2.8.9zm28.9 0c-.7.6-1 1.3-1 2.2 0 .9.4 1.7 1.3 2.2.8.5 2.8 1.2 5.8 1.9s5.4 1.9 7.1 3.4 2.5 3.7 2.5 6.5c0 2.9-1.1 5.2-3.2 7s-5 2.7-8.5 2.7c-5.1 0-9.6-1.9-13.7-5.6l4.2-5.2c3.4 3 6.6 4.5 9.5 4.5 1.3 0 2.3-.3 3.1-.8.7-.6 1.1-1.3 1.1-2.3s-.4-1.7-1.2-2.3-2.4-1.1-4.7-1.7c-3.7-.9-6.4-2-8.2-3.4-1.7-1.4-2.6-3.6-2.6-6.7 0-3 1.1-5.4 3.3-7 2.2-1.6 4.9-2.5 8.2-2.5 2.1 0 4.3.4 6.4 1.1s4 1.8 5.6 3.1l-3.6 5.2c-2.8-2.1-5.6-3.2-8.6-3.2-1.2 0-2.1.3-2.8.9z" fill="#fff"/></svg>