<svg xmlns="http://www.w3.org/2000/svg" viewBox="0 0 512 512"><path d="M256 0C114.616 0 0 114.616 0 256s114.616 256 256 256 256-114.616 256-256S397.384 0 256 0z" fill="#fdc00f"/><path d="M256 512c122.573 0 224.968-86.164 250.061-201.216-.896-.947-197.857-197.908-198.804-198.804C294.385 98.376 276.204 89.846 256 89.846c-39.009 0-70.63 31.621-70.63 70.63v110.121h-48.778a6.966 6.966 0 0 0-6.968 6.968c0 2.642 1.526 4.859 3.692 6.036a6.848 6.848 0 0 0 2.76 2.76 6.848 6.848 0 0 0 2.76 2.76l.266.394v12.216c0 26.225 8.571 50.478 23.04 70.139a10.056 10.056 0 0 0-.763 3.835c0 3.487 1.772 6.554 4.465 8.356.732 1.091 78.981 79.34 80.072 80.072a9.93 9.93 0 0 0 1.121 1.367v46.269l.87.02c.63.015 1.26.026 1.889.046 2.072.057 4.125.165 6.204.165z" fill="#eb9900"/><path d="M326.63 160.476c0-39.009-31.621-70.63-70.63-70.63s-70.63 31.621-70.63 70.63v141.261c0 39.009 31.621 70.63 70.63 70.63s70.63-31.621 70.63-70.63V160.476z" fill="#2c5871"/><path d="M185.37 247.649v54.083c0 35.968 26.895 65.638 61.665 70.042v43.607h17.925v-43.607c34.775-4.408 61.665-34.074 61.665-70.042v-54.083H185.37z" fill="#14b0bf"/><path d="M326.548 305.085c-1.613 34.447-27.904 62.418-61.588 66.688v.02c33.69-4.259 59.981-32.255 61.588-66.708zm.041-.926l-.036.927.036-.927zm0-.103l-.005.087.005-.087zm.006-.102l-.005.082.005-.082zm.005-.102v.077-.077zm0-.108v.072-.072zm.005-.108v.072-.072zm0-.107v.067-.067zm.005-.102v.061-.061zm0-.113v.061-.061zm.005-.108v.061-.061zm0-.153v.108-.108zm.005-.113v.046-.046zm0-.112v.056-.056zm0-.108v.051-.051zm.005-.108v.051-.051zm0-.112v.051-.051zm0-.108v.051-.051zm0-.112v.051-.051zm.005-.108v.051-.051zm0-.112v.046-.046zm0-.108v.046-.046zm0-.113v.041-.041zM256 89.846V247.65h70.63v-87.179c0-39.004-31.621-70.625-70.63-70.625z" fill="#204357"/><path d="M326.63 247.649H256v124.713c3.036 0 6.026-.189 8.96-.563v-.02c33.684-4.27 59.981-32.241 61.588-66.688v-.005l.036-.927v-.01l.005-.087v-.02l.005-.082v-56.306h.036z" fill="#0e8594"/><path d="M256 247.649v167.736h8.96v-43.607c34.775-4.408 61.665-34.074 61.665-70.042v-54.088H256z" fill="#0086ba"/><circle cx="256" cy="204.001" r="9.001" fill="#0f303f"/><path d="M235.361 177.362a4.723 4.723 0 0 0-4.721-4.721h-45.27v9.436h45.271a4.71 4.71 0 0 0 4.72-4.715zm-4.715 48.553h-45.271v9.436h45.271a4.718 4.718 0 1 0 0-9.436zm0-35.512h-45.271v9.436h45.271a4.723 4.723 0 0 0 4.721-4.721 4.725 4.725 0 0 0-4.721-4.715zm0 17.756h-45.271v9.436h45.271a4.723 4.723 0 0 0 4.721-4.721 4.725 4.725 0 0 0-4.721-4.715zm95.984-35.513h-45.271a4.723 4.723 0 0 0-4.721 4.721 4.723 4.723 0 0 0 4.721 4.721h45.271v-9.442zm-45.276 17.757a4.723 4.723 0 0 0-4.721 4.721 4.723 4.723 0 0 0 4.721 4.721h45.271v-9.436h-45.271v-.006zm0 35.512c-2.606 0-4.721 2.115-4.721 4.721s2.115 4.721 4.721 4.721h45.271v-9.436h-45.271v-.006zm0-17.756a4.723 4.723 0 0 0-4.721 4.721 4.723 4.723 0 0 0 4.721 4.721h45.271v-9.436h-45.271v-.006z" fill="#0f303f"/><path d="M375.409 270.592H136.591a6.97 6.97 0 0 0 0 13.936h2.509v17.208c0 26.225 8.571 50.478 23.04 70.139a10.056 10.056 0 0 0-.763 3.835c0 5.555 4.506 10.061 10.061 10.061.814 0 1.592-.123 2.35-.307 18.647 18.683 43.479 31.186 71.122 34.161.492 1.311 1.229 2.493 2.125 3.538v88.617c2.985.097 5.96.22 8.965.22s5.98-.123 8.96-.225v-88.581a11.862 11.862 0 0 0 2.028-3.277c28.938-2.258 54.999-14.915 74.404-34.268l1.126.113c5.555 0 10.061-4.506 10.061-10.061 0-.865-.143-1.69-.348-2.488 15.073-19.891 24.038-44.652 24.038-71.48v-17.295c3.436-.43 6.098-3.328 6.098-6.881.01-3.847-3.113-6.965-6.958-6.965zm-123.444 133.74a11.835 11.835 0 0 0-6.548 5.837c-25.052-2.816-47.555-14.147-64.558-31.022.394-1.08.645-2.227.645-3.441 0-5.555-4.506-10.061-10.061-10.061-.691 0-1.367.072-2.017.205-13.123-18.012-20.884-40.172-20.884-64.113v-17.208h103.424l-.001 119.803zm114.873-102.6c0 24.1-7.854 46.397-21.14 64.471-1.004-.338-2.058-.563-3.174-.563-5.555 0-10.061 4.506-10.061 10.061 0 1.587.399 3.067 1.055 4.403-17.618 17.039-40.929 28.211-66.78 30.346a11.846 11.846 0 0 0-6.702-6.118V284.529h106.803l-.001 17.203z" fill="#2c5871"/></svg>