<svg xmlns="http://www.w3.org/2000/svg" viewBox="0 0 512 512"><circle cx="256" cy="256" r="256" fill="#4ab8a1"/><path d="M454.9 393.892a78.729 78.729 0 0 0-4.06-10.24 79.668 79.668 0 0 0-4.088-10.3 78.787 78.787 0 0 0-4.06-10.228c-1.364-4.272-3.076-8.308-5.04-12.132a78.107 78.107 0 0 0-2.676-6.252 78.29 78.29 0 0 0-4.08-10.276 78.731 78.731 0 0 0-4.06-10.224 78.619 78.619 0 0 0-4.096-10.32 79.062 79.062 0 0 0-4.056-10.224 79.426 79.426 0 0 0-4.084-10.3 79.266 79.266 0 0 0-4.048-10.208 80.232 80.232 0 0 0-4.084-10.3 79.785 79.785 0 0 0-5.04-12.124 77.925 77.925 0 0 0-2.68-6.252 78.403 78.403 0 0 0-4.064-10.24 79.598 79.598 0 0 0-4.084-10.296 79.488 79.488 0 0 0-4.064-10.236 78.107 78.107 0 0 0-4.076-10.272 78.61 78.61 0 0 0-4.076-10.268 79.315 79.315 0 0 0-4.064-10.24 79.11 79.11 0 0 0-4.092-10.316 79.33 79.33 0 0 0-5.024-12.084 78.895 78.895 0 0 0-2.672-6.232 79.224 79.224 0 0 0-4.092-10.308 78.605 78.605 0 0 0-4.056-10.216 80.346 80.346 0 0 0-4.084-10.308 79.858 79.858 0 0 0-7.276-16.192C321.564 72.832 262.704 57 240 57v30.944c-28 3.436-59.928 58.456-84 68.772v31.276l28 67.396c-4.544 8.336-7.488 18.868-7.488 31.564.356 4.648 1.144 9.124 2.272 13.06.84 3.46 1.968 6.724 3.352 9.632.328 1.008.752 1.976 1.124 2.94.528 1.732 1.108 3.44 1.772 5.052a53.337 53.337 0 0 0 3.34 7.948 53.86 53.86 0 0 0 3.396 8.124c.192.596.408 1.18.616 1.764-2.7 2.148-4.388 5.288-4.388 9.516V368h-8c-8.836 0-16 7.164-16 16v60.096c0 3.68 1.58 7.008 4 9.688l20.06 49.032C209.704 508.756 232.468 512 256 512c83.952 0 158.476-40.416 205.16-102.856a77.74 77.74 0 0 0-2.172-4.96 78.54 78.54 0 0 0-4.088-10.292z" fill="#43a691"/><path d="M328 368v-23c0-8.8-7.2-13-16-13H204c-8.8 0-16 4.2-16 13v23h140z" fill="#cc584c"/><path d="M312 332h-16c8.8 0 16 4.2 16 13v23h16v-23c0-8.8-7.2-13-16-13z" fill="#bf5347"/><path d="M224.772 180.788c-27.512 0-37.828 20.632-44.704 20.632-6.88 0-13.752-6.876-24.072-13.752V156.72c24.072-10.316 56-65.332 84-68.772V57c28 0 111.016 24.072 111.016 96.28 0 72.212-47.648 85.964-13.26 137.544-10.312 30.948-47.896 51.584-78.844 51.584-37.824 0-78.96-10.32-82.4-55.016.004-68.78 86.084-61.9 48.264-106.604z" fill="#e6e6e6"/><path d="M240 57v20.632c40 0 90.384 30.948 90.384 72.212 0 65.332-57.96 92.84-19.132 174.844 12.188-8.732 22.236-20.304 26.752-33.86-34.388-51.58 12.896-65.332 12.896-137.544C350.9 81.072 268 57 240 57z" fill="#ccc"/><path d="M240 57v20.632c40 0 90.384 30.948 90.384 72.212 0 65.332-57.96 92.84-19.132 174.844 12.188-8.732 22.236-20.304 26.752-33.86-34.388-51.58 12.896-65.332 12.896-137.544C350.9 81.072 268 57 240 57z" fill="#b3b3b3"/><path d="M356 440c0 8.836-7.164 16-16 16H180c-8.836 0-16-7.164-16-16v-56c0-8.836 7.164-16 16-16h160c8.836 0 16 7.164 16 16v56z" fill="#263740"/><path d="M340 368h-16c8.836 0 16 7.164 16 16v56c0 8.836-7.164 16-16 16h16c8.836 0 16-7.164 16-16v-56c0-8.836-7.164-16-16-16z" fill="#1e2c33"/><path d="M232.848 128.56c-4.16 0-7.24-1.78-8.236-4.764-1.464-4.4 2.26-9.188 8.856-11.384 1.908-.636 3.868-.972 5.68-.972 4.16 0 7.24 1.78 8.236 4.764 1.464 4.4-2.26 9.188-8.856 11.384-1.904.636-3.868.972-5.68.972z" fill="#f5f5f5"/><ellipse transform="rotate(161.568 235.978 120.03)" cx="235.979" cy="120.03" rx="8" ry="4" fill="#263740"/></svg>