<svg xmlns="http://www.w3.org/2000/svg" viewBox="0 0 460 460"><path d="M230 0C102.974 0 0 102.975 0 230c0 103.712 68.651 191.38 162.985 220.07l281.918-302.152C411.849 61.431 328.105 0 230 0z" fill="#084b63"/><path d="M460 230c0-28.92-5.353-56.586-15.097-82.082l-66.411-66.411-256.68 327.39 41.172 41.172C184.19 456.519 206.687 460 230 460c127.026 0 230-102.975 230-230z" fill="#06384a"/><path fill="#2089b0" d="M84.336 290.811l-33.234 47.376 35.355 35.356 54.448-40.305z"/><path fill="#146a8a" d="M169.189 375.664l-35.356-49.497-47.376 47.376 35.356 35.355z"/><path fill="#a3dde9" d="M70.194 177.674l-49.498 49.498 63.64 21.213 14.142 14.142 91.924-91.924-14.142-14.142z"/><path fill="#62b3cd" d="M303.539 283.74l-14.142-14.142-91.924 91.924 14.142 14.142 21.213 63.64 49.498-49.498z"/><path d="M215.858 116.863L63.123 269.598l63.64 63.64 132.936-118.794L378.492 81.508c-54.553-20.499-118.587-8.692-162.634 35.355z" fill="#fff"/><path d="M343.137 244.142c44.047-44.047 55.854-108.081 35.355-162.634l-251.73 251.73 63.64 63.64 152.735-152.736z" fill="#a3dde9"/><path d="M265.355 123.934c-19.526 19.526-19.526 51.184 0 70.711l47.14-23.57 23.57-47.14c-19.525-19.527-51.183-19.527-70.71-.001z" fill="#82c8db"/><path d="M336.066 123.934l-70.711 70.711c19.526 19.526 51.184 19.526 70.711 0 19.526-19.527 19.526-51.185 0-70.711z" fill="#419ebe"/><path d="M279.497 138.076c-11.716 11.716-11.716 30.711 0 42.426l28.284-14.142 14.142-28.284c-11.715-11.716-30.71-11.716-42.426 0z" fill="#fff"/><path fill="#62b3cd" d="M137.37 343.843l-21.213-21.213 98.993-98.993 21.213 21.213z"/><path d="M321.924 138.076l-42.426 42.426c11.716 11.716 30.711 11.716 42.426 0 11.716-11.715 11.716-30.71 0-42.426z" fill="#f7b93f"/></svg>