<svg xmlns="http://www.w3.org/2000/svg" viewBox="0 0 512 512"><circle cx="256" cy="256" r="256" fill="#ffc61b"/><path d="M92.731 287.263l221.306 218.128c94.779-21.969 169.384-96.573 191.354-191.354L447.354 256l-123.752 73.319-230.871-42.056z" fill="#eaa22f"/><path d="M256 160.328c-78.248 0-147.718 37.579-191.354 95.672 43.636 58.092 113.105 95.672 191.354 95.672S403.718 314.092 447.354 256C403.718 197.908 334.248 160.328 256 160.328z" fill="#fff"/><path d="M256 160.328c-.191 0-.383.009-.574.009v191.326c.191 0 .383.009.574.009 78.25 0 147.718-37.579 191.354-95.672-43.636-58.092-113.106-95.672-191.354-95.672z" fill="#e2e2e2"/><circle cx="256" cy="256" r="85.333" fill="#71e2ef"/><path d="M256 170.667c-.193 0-.381.014-.574.014v170.637c.193.002.381.014.574.014 47.128 0 85.333-38.205 85.333-85.333S303.128 170.667 256 170.667z" fill="#38c6d9"/><circle cx="256" cy="256" r="42.667" fill="#273b7a"/><path d="M256 213.333c-.193 0-.383.012-.574.014v85.304c.191.002.381.014.574.014 23.564 0 42.667-19.103 42.667-42.667 0-23.562-19.103-42.665-42.667-42.665z" fill="#121149"/></svg>