<svg xmlns="http://www.w3.org/2000/svg" viewBox="0 0 297.001 297.001"><circle cx="148.501" cy="148.5" r="148.5" fill="#345f41"/><path d="M190.071 51.202c-10.191 7.871-22.258 13.207-33.57 19.298-8 4-12 13-14 23-7 37-20 69-42 100-9.934 13.908-10.986 28.803-11.98 44.685l58.8 58.801c.394.003.785.015 1.18.015 78.879 0 143.382-61.503 148.2-139.168L190.071 51.202z" fill="#1f4429"/><path d="M181.501 105.884V54h-66v51.884c-29.133 12.733-49.5 41.789-49.5 75.616 0 45.563 36.937 82.5 82.5 82.5s82.5-36.937 82.5-82.5c0-33.827-20.368-62.883-49.5-75.616z" fill="#d6f0ef"/><path d="M181.501 105.884V54h-34.333v209.966c.445.007.886.034 1.333.034 45.563 0 82.5-36.937 82.5-82.5 0-33.827-20.368-62.883-49.5-75.616z" fill="#bfd8d5"/><path d="M111.501 63.5h74a7 7 0 1 0 0-14h-74a7 7 0 1 0 0 14z" fill="#fff"/><path d="M185.501 49.5h-38.333v14h38.333a7 7 0 1 0 0-14z" fill="#edeceb"/><path d="M137.642 176.861c-10.067-10.069-24.227-13.213-35.898-9.123-4.094 11.669-.952 25.828 9.115 35.897s24.227 13.213 35.898 9.123c4.093-11.668.951-25.828-9.115-35.897z" fill="#2ecc71"/><path d="M159.564 193.585c.835-9.078-3.411-17.331-10.198-21.396-7.416 2.768-13.098 10.116-13.933 19.194-.835 9.078 3.411 17.331 10.198 21.396 7.416-2.768 13.097-10.116 13.933-19.194z" fill="#17ab93"/><path d="M149.365 172.189c-.753.281-1.483.621-2.197.994v38.938c6.652-3.16 11.619-10.097 12.396-18.536.834-9.078-3.412-17.331-10.199-21.396z" fill="#17ab93"/><path d="M201.517 222.118c10.846-9.223 15.118-23.079 11.979-35.037-11.302-5.016-25.668-3.023-36.514 6.2s-15.118 23.079-11.979 35.037c11.302 5.016 25.668 3.023 36.514-6.2z" fill="#2ecc71"/><circle cx="123.751" cy="140.25" r="8.25" fill="#f4af30"/><circle cx="107.251" cy="222.75" r="8.25" fill="#f4af30"/><circle cx="206.251" cy="173.25" r="8.25" fill="#f4af30"/><circle cx="173.251" cy="156.75" r="4" fill="#f4af30"/><circle cx="128.001" cy="243.5" r="4" fill="#f4af30"/><circle cx="152.501" cy="119.5" r="4" fill="#f4af30"/></svg>